<svg width="543" height="381" viewBox="0 0 543 381" fill="none" xmlns="http://www.w3.org/2000/svg">
<path d="M488.591 354.939H452.623V355.198H488.591V354.939Z" fill="#EBEBEB"/>
<path d="M359.705 357.75H350.268V358.008H359.705V357.75Z" fill="#EBEBEB"/>
<path d="M451.538 345.35H430.697V345.608H451.538V345.35Z" fill="#EBEBEB"/>
<path d="M103.876 347.086H56.9717V347.344H103.876V347.086Z" fill="#EBEBEB"/>
<path d="M120.426 347.086H113.552V347.344H120.426V347.086Z" fill="#EBEBEB"/>
<path d="M244.514 351.447H142.777V351.705H244.514V351.447Z" fill="#EBEBEB"/>
<path d="M258.902 292.226H49.1952C47.5506 292.226 45.9733 291.605 44.8104 290.498C43.6475 289.392 42.9941 287.891 42.9941 286.326V5.84866C43.0085 4.29277 43.6681 2.80524 44.8295 1.70986C45.9909 0.614484 47.5599 -5.96501e-05 49.1952 4.34263e-09H258.902C259.716 4.34264e-09 260.522 0.152615 261.275 0.449134C262.027 0.745654 262.711 1.18027 263.287 1.72817C263.862 2.27606 264.319 2.92651 264.631 3.64237C264.942 4.35823 265.103 5.12548 265.103 5.90033V286.326C265.103 287.101 264.942 287.868 264.631 288.584C264.319 289.3 263.862 289.95 263.287 290.498C262.711 291.046 262.027 291.481 261.275 291.777C260.522 292.074 259.716 292.226 258.902 292.226ZM49.1952 0.206667C47.6235 0.209399 46.1169 0.804697 45.0055 1.86219C43.8942 2.91967 43.2685 4.35315 43.2656 5.84866V286.326C43.2685 287.822 43.8942 289.255 45.0055 290.312C46.1169 291.37 47.6235 291.965 49.1952 291.968H258.902C260.473 291.965 261.98 291.37 263.091 290.312C264.203 289.255 264.828 287.822 264.831 286.326V5.84866C264.828 4.35315 264.203 2.91967 263.091 1.86219C261.98 0.804697 260.473 0.209399 258.902 0.206667H49.1952Z" fill="#EBEBEB"/>
<path d="M493.805 292.226H284.099C282.454 292.226 280.877 291.605 279.714 290.498C278.551 289.392 277.897 287.891 277.897 286.326V5.84866C277.912 4.29277 278.571 2.80524 279.733 1.70986C280.894 0.614484 282.463 -5.96501e-05 284.099 4.34263e-09H493.805C495.45 4.34264e-09 497.027 0.62164 498.19 1.72817C499.353 2.83469 500.006 4.33546 500.006 5.90033V286.326C500.006 287.891 499.353 289.392 498.19 290.498C497.027 291.605 495.45 292.226 493.805 292.226ZM284.099 0.206667C282.527 0.209399 281.02 0.804697 279.909 1.86219C278.797 2.91967 278.172 4.35315 278.169 5.84866V286.326C278.172 287.822 278.797 289.255 279.909 290.312C281.02 291.37 282.527 291.965 284.099 291.968H493.805C495.377 291.965 496.883 291.37 497.995 290.312C499.106 289.255 499.732 287.822 499.735 286.326V5.84866C499.732 4.35315 499.106 2.91967 497.995 1.86219C496.883 0.804697 495.377 0.209399 493.805 0.206667H284.099Z" fill="#EBEBEB"/>
<path d="M543 338.313H0V338.571H543V338.313Z" fill="#EBEBEB"/>
<path d="M230.862 59.0758C229.721 59.0584 228.61 59.4243 227.724 60.1091C227.903 59.1731 227.903 58.2138 227.724 57.2778C227.243 55.0535 225.992 53.0469 224.171 51.5798C222.349 50.1127 220.063 49.27 217.678 49.1868C216.337 49.1705 215.016 49.499 213.855 50.1375C212.973 48.5963 211.683 47.3006 210.114 46.3783C208.545 45.4559 206.75 44.9388 204.907 44.8778C203.842 44.8424 202.784 45.0412 201.813 45.4589C200.843 45.8766 199.987 46.5018 199.312 47.2858C198.638 48.0698 198.162 48.9915 197.923 49.9791C197.684 50.9666 197.688 51.9933 197.935 52.9791C198.008 53.3283 198.103 53.6733 198.217 54.0125C197.469 53.823 196.699 53.7257 195.925 53.7231C194.861 53.6877 193.803 53.8865 192.832 54.3042C191.862 54.7219 191.006 55.3471 190.331 56.1311C189.656 56.9152 189.181 57.8368 188.942 58.8244C188.703 59.8119 188.707 60.8386 188.953 61.8245C189.432 64.0496 190.682 66.0572 192.504 67.5246C194.326 68.992 196.613 69.834 198.999 69.9155H232.915C233.629 69.94 234.341 69.8072 234.993 69.5275C235.645 69.2477 236.22 68.8286 236.674 68.3026C237.128 67.7767 237.448 67.1581 237.61 66.4951C237.772 65.8321 237.77 65.1425 237.606 64.4801C237.277 62.9922 236.435 61.6518 235.213 60.6724C233.99 59.693 232.459 59.1309 230.862 59.0758Z" fill="#F5F5F5"/>
<path d="M175.139 65.7509C173.067 65.7156 171.047 66.378 169.438 67.6212C169.779 65.9143 169.779 64.1615 169.438 62.4545C167.896 54.3326 159.74 47.7502 151.204 47.7502C148.774 47.7244 146.381 48.3204 144.275 49.4759C141.017 43.9062 134.642 39.9382 127.985 39.9382C119.449 39.9382 113.78 46.5206 115.322 54.6425C115.453 55.3034 115.627 55.9557 115.844 56.5955C114.486 56.2547 113.089 56.0777 111.684 56.0685C103.148 56.0685 97.4903 62.6509 99.0216 70.7625C100.553 78.8742 108.73 85.4669 117.256 85.4669H178.832C184.566 85.4669 188.367 81.0442 187.335 75.5882C186.739 72.8924 185.217 70.4622 183.009 68.6809C180.801 66.8996 178.032 65.8687 175.139 65.7509Z" fill="#F5F5F5"/>
<path d="M423.964 69.0989C421.89 69.0656 419.87 69.7318 418.263 70.9795C418.603 69.2725 418.603 67.5199 418.263 65.8129C416.731 57.7012 408.565 51.1189 400.029 51.1189C397.602 51.0934 395.213 51.6894 393.111 52.8445C389.853 47.2749 383.467 43.3069 376.821 43.3069C368.285 43.3069 362.616 49.8892 364.158 58.0009C364.292 58.6643 364.466 59.3198 364.679 59.9642C363.323 59.6152 361.925 59.4346 360.52 59.4269C351.995 59.4269 346.326 66.0092 347.868 74.1312C349.41 82.2532 357.61 88.8665 366.146 88.8665H427.711C433.445 88.8665 437.246 84.4438 436.214 78.9982C435.629 76.2827 434.104 73.8322 431.884 72.0378C429.663 70.2434 426.875 69.2087 423.964 69.0989Z" fill="#F5F5F5"/>
<path d="M457.205 56.0273C456.339 56.0105 455.496 56.2891 454.827 56.8126C454.968 56.106 454.968 55.3803 454.827 54.6736C454.467 52.9883 453.521 51.4674 452.142 50.3558C450.763 49.2442 449.031 48.6067 447.225 48.5459C446.211 48.5318 445.212 48.782 444.336 49.2693C443.668 48.1046 442.693 47.1254 441.507 46.4279C440.32 45.7304 438.964 45.3386 437.57 45.291C436.765 45.2639 435.964 45.414 435.23 45.7298C434.495 46.0456 433.848 46.5184 433.337 47.1114C432.826 47.7044 432.466 48.4016 432.285 49.1487C432.104 49.8958 432.106 50.6726 432.292 51.4186C432.348 51.6945 432.421 51.9671 432.51 52.2349C431.947 52.0871 431.366 52.0107 430.783 52.0076C429.977 51.9784 429.175 52.1272 428.439 52.4423C427.704 52.7574 427.055 53.2302 426.544 53.8238C426.033 54.4173 425.673 55.1155 425.492 55.8635C425.312 56.6115 425.316 57.3891 425.505 58.1353C425.867 59.8187 426.813 61.3372 428.192 62.4468C429.571 63.5564 431.302 64.1924 433.107 64.2526H458.758C459.3 64.2703 459.84 64.1683 460.334 63.9548C460.828 63.7413 461.263 63.4219 461.606 63.0217C461.949 62.6215 462.19 62.1512 462.31 61.6477C462.43 61.1442 462.426 60.6211 462.299 60.1193C462.048 58.9955 461.412 57.9831 460.489 57.2421C459.567 56.501 458.411 56.0736 457.205 56.0273Z" fill="#F0F0F0"/>
<path d="M299.291 105.637V95.6555H278.092V105.637H242.928V340.473H304.417V105.637H299.291Z" fill="#F0F0F0"/>
<path d="M271.869 118.244H262.79V126.883H271.869V118.244Z" fill="#FAFAFA"/>
<path d="M284.555 118.244H275.476V126.883H284.555V118.244Z" fill="#FAFAFA"/>
<path d="M259.185 131.274H250.106V139.913H259.185V131.274Z" fill="#FAFAFA"/>
<path d="M271.869 131.274H262.79V139.913H271.869V131.274Z" fill="#FAFAFA"/>
<path d="M297.238 131.274H288.159V139.913H297.238V131.274Z" fill="#FAFAFA"/>
<path d="M259.185 144.315H250.106V152.954H259.185V144.315Z" fill="#FAFAFA"/>
<path d="M284.555 144.315H275.476V152.954H284.555V144.315Z" fill="#FAFAFA"/>
<path d="M297.238 144.315H288.159V152.954H297.238V144.315Z" fill="#FAFAFA"/>
<path d="M259.185 170.376H250.106V179.014H259.185V170.376Z" fill="#FAFAFA"/>
<path d="M284.555 170.376H275.476V179.014H284.555V170.376Z" fill="#FAFAFA"/>
<path d="M259.185 183.406H250.106V192.045H259.185V183.406Z" fill="#FAFAFA"/>
<path d="M271.869 183.406H262.79V192.045H271.869V183.406Z" fill="#FAFAFA"/>
<path d="M297.238 183.406H288.159V192.045H297.238V183.406Z" fill="#FAFAFA"/>
<path d="M259.185 248.485H250.106V257.124H259.185V248.485Z" fill="#FAFAFA"/>
<path d="M271.869 248.485H262.79V257.124H271.869V248.485Z" fill="#FAFAFA"/>
<path d="M297.238 248.485H288.159V257.124H297.238V248.485Z" fill="#FAFAFA"/>
<path d="M259.185 261.516H250.106V270.154H259.185V261.516Z" fill="#FAFAFA"/>
<path d="M284.555 261.516H275.476V270.154H284.555V261.516Z" fill="#FAFAFA"/>
<path d="M297.238 261.516H288.159V270.154H297.238V261.516Z" fill="#FAFAFA"/>
<path d="M259.185 287.587H250.106V296.225H259.185V287.587Z" fill="#FAFAFA"/>
<path d="M284.555 287.587H275.476V296.225H284.555V287.587Z" fill="#FAFAFA"/>
<path d="M259.185 300.617H250.106V309.256H259.185V300.617Z" fill="#FAFAFA"/>
<path d="M271.869 300.617H262.79V309.256H271.869V300.617Z" fill="#FAFAFA"/>
<path d="M297.238 300.617H288.159V309.256H297.238V300.617Z" fill="#FAFAFA"/>
<path d="M297.238 196.447H288.159V205.085H297.238V196.447Z" fill="#FAFAFA"/>
<path d="M259.185 209.477H250.106V218.116H259.185V209.477Z" fill="#FAFAFA"/>
<path d="M271.869 209.477H262.79V218.116H271.869V209.477Z" fill="#FAFAFA"/>
<path d="M284.622 222.654L275.544 222.531L275.414 231.169L284.492 231.292L284.622 222.654Z" fill="#FAFAFA"/>
<path d="M297.303 222.827L288.225 222.703L288.095 231.341L297.173 231.465L297.303 222.827Z" fill="#FAFAFA"/>
<path d="M259.185 235.538H250.106V244.176H259.185V235.538Z" fill="#FAFAFA"/>
<path d="M417.284 150.391V142.321H434.432V150.391H462.907V340.473H413.136V150.391H417.284Z" fill="#F0F0F0"/>
<path d="M439.483 167.596H446.835V160.601H439.483V167.596Z" fill="#FAFAFA"/>
<path d="M429.209 167.596H436.562V160.601H429.209V167.596Z" fill="#FAFAFA"/>
<path d="M449.744 178.146H457.097V171.15H449.744V178.146Z" fill="#FAFAFA"/>
<path d="M439.483 178.146H446.835V171.15H439.483V178.146Z" fill="#FAFAFA"/>
<path d="M418.936 178.146H426.288V171.15H418.936V178.146Z" fill="#FAFAFA"/>
<path d="M449.744 188.697H457.097V181.701H449.744V188.697Z" fill="#FAFAFA"/>
<path d="M429.209 188.697H436.562V181.701H429.209V188.697Z" fill="#FAFAFA"/>
<path d="M418.936 188.697H426.288V181.701H418.936V188.697Z" fill="#FAFAFA"/>
<path d="M449.744 209.787H457.097V202.792H449.744V209.787Z" fill="#FAFAFA"/>
<path d="M429.209 209.787H436.562V202.792H429.209V209.787Z" fill="#FAFAFA"/>
<path d="M449.744 220.348H457.097V213.352H449.744V220.348Z" fill="#FAFAFA"/>
<path d="M439.483 220.348H446.835V213.352H439.483V220.348Z" fill="#FAFAFA"/>
<path d="M418.936 220.348H426.288V213.352H418.936V220.348Z" fill="#FAFAFA"/>
<path d="M449.744 273.017H457.097V266.021H449.744V273.017Z" fill="#FAFAFA"/>
<path d="M439.483 273.017H446.835V266.021H439.483V273.017Z" fill="#FAFAFA"/>
<path d="M418.936 273.017H426.288V266.021H418.936V273.017Z" fill="#FAFAFA"/>
<path d="M449.744 283.557H457.097V276.561H449.744V283.557Z" fill="#FAFAFA"/>
<path d="M429.209 283.557H436.562V276.561H429.209V283.557Z" fill="#FAFAFA"/>
<path d="M418.936 283.557H426.288V276.561H418.936V283.557Z" fill="#FAFAFA"/>
<path d="M449.744 304.668H457.097V297.672H449.744V304.668Z" fill="#FAFAFA"/>
<path d="M429.209 304.668H436.562V297.672H429.209V304.668Z" fill="#FAFAFA"/>
<path d="M449.744 315.218H457.097V308.222H449.744V315.218Z" fill="#FAFAFA"/>
<path d="M439.483 315.218H446.835V308.222H439.483V315.218Z" fill="#FAFAFA"/>
<path d="M418.936 315.218H426.288V308.222H418.936V315.218Z" fill="#FAFAFA"/>
<path d="M418.936 230.898H426.288V223.903H418.936V230.898Z" fill="#FAFAFA"/>
<path d="M449.744 241.438H457.097V234.442H449.744V241.438Z" fill="#FAFAFA"/>
<path d="M439.483 241.438H446.835V234.442H439.483V241.438Z" fill="#FAFAFA"/>
<path d="M429.274 252.095L436.625 251.995L436.52 245L429.168 245.1L429.274 252.095Z" fill="#FAFAFA"/>
<path d="M418.986 252.254L426.338 252.154L426.233 245.159L418.881 245.259L418.986 252.254Z" fill="#FAFAFA"/>
<path d="M449.744 262.539H457.097V255.543H449.744V262.539Z" fill="#FAFAFA"/>
<path d="M313.746 152.303H330.731H358.912V340.473H309.641V152.303H313.746Z" fill="#EBEBEB"/>
<path d="M335.727 169.332H343.003V162.409H335.727V169.332Z" fill="#FAFAFA"/>
<path d="M325.561 169.332H332.837V162.409H325.561V169.332Z" fill="#FAFAFA"/>
<path d="M345.88 179.779H353.156V172.856H345.88V179.779Z" fill="#FAFAFA"/>
<path d="M335.727 179.779H343.003V172.856H335.727V179.779Z" fill="#FAFAFA"/>
<path d="M315.396 179.779H322.672V172.856H315.396V179.779Z" fill="#FAFAFA"/>
<path d="M345.88 190.216H353.156V183.292H345.88V190.216Z" fill="#FAFAFA"/>
<path d="M325.561 190.216H332.837V183.292H325.561V190.216Z" fill="#FAFAFA"/>
<path d="M315.396 190.216H322.672V183.292H315.396V190.216Z" fill="#FAFAFA"/>
<path d="M345.88 211.11H353.156V204.186H345.88V211.11Z" fill="#FAFAFA"/>
<path d="M325.561 211.11H332.837V204.186H325.561V211.11Z" fill="#FAFAFA"/>
<path d="M345.88 221.547H353.156V214.623H345.88V221.547Z" fill="#FAFAFA"/>
<path d="M335.727 221.547H343.003V214.623H335.727V221.547Z" fill="#FAFAFA"/>
<path d="M315.396 221.547H322.672V214.623H315.396V221.547Z" fill="#FAFAFA"/>
<path d="M345.88 273.688H353.156V266.765H345.88V273.688Z" fill="#FAFAFA"/>
<path d="M335.727 273.688H343.003V266.765H335.727V273.688Z" fill="#FAFAFA"/>
<path d="M315.396 273.688H322.672V266.765H315.396V273.688Z" fill="#FAFAFA"/>
<path d="M345.88 284.135H353.156V277.212H345.88V284.135Z" fill="#FAFAFA"/>
<path d="M325.561 284.135H332.837V277.212H325.561V284.135Z" fill="#FAFAFA"/>
<path d="M315.396 284.135H322.672V277.212H315.396V284.135Z" fill="#FAFAFA"/>
<path d="M345.88 305.019H353.156V298.096H345.88V305.019Z" fill="#FAFAFA"/>
<path d="M325.561 305.019H332.837V298.096H325.561V305.019Z" fill="#FAFAFA"/>
<path d="M345.88 315.456H353.156V308.532H345.88V315.456Z" fill="#FAFAFA"/>
<path d="M335.727 315.456H343.003V308.532H335.727V315.456Z" fill="#FAFAFA"/>
<path d="M315.396 315.456H322.672V308.532H315.396V315.456Z" fill="#FAFAFA"/>
<path d="M315.396 231.993H322.672V225.07H315.396V231.993Z" fill="#FAFAFA"/>
<path d="M345.88 242.43H353.156V235.507H345.88V242.43Z" fill="#FAFAFA"/>
<path d="M335.727 242.43H343.003V235.507H335.727V242.43Z" fill="#FAFAFA"/>
<path d="M325.623 252.997L332.898 252.898L332.794 245.975L325.519 246.074L325.623 252.997Z" fill="#FAFAFA"/>
<path d="M315.444 253.127L322.72 253.028L322.616 246.106L315.34 246.205L315.444 253.127Z" fill="#FAFAFA"/>
<path d="M345.88 263.324H353.156V256.401H345.88V263.324Z" fill="#FAFAFA"/>
<path d="M86.3806 152.303H103.355H131.547V340.473H82.2646V152.303H86.3806Z" fill="#F0F0F0"/>
<path d="M108.35 169.332H115.626V162.409H108.35V169.332Z" fill="#FAFAFA"/>
<path d="M98.1847 169.332H105.461V162.409H98.1847V169.332Z" fill="#FAFAFA"/>
<path d="M118.505 179.779H125.781V172.856H118.505V179.779Z" fill="#FAFAFA"/>
<path d="M108.35 179.779H115.626V172.856H108.35V179.779Z" fill="#FAFAFA"/>
<path d="M88.0207 179.779H95.2969V172.856H88.0207V179.779Z" fill="#FAFAFA"/>
<path d="M118.505 190.216H125.781V183.292H118.505V190.216Z" fill="#FAFAFA"/>
<path d="M98.1847 190.216H105.461V183.292H98.1847V190.216Z" fill="#FAFAFA"/>
<path d="M88.0207 190.216H95.2969V183.292H88.0207V190.216Z" fill="#FAFAFA"/>
<path d="M118.505 211.11H125.781V204.186H118.505V211.11Z" fill="#FAFAFA"/>
<path d="M98.1847 211.11H105.461V204.186H98.1847V211.11Z" fill="#FAFAFA"/>
<path d="M118.505 221.547H125.781V214.623H118.505V221.547Z" fill="#FAFAFA"/>
<path d="M108.35 221.547H115.626V214.623H108.35V221.547Z" fill="#FAFAFA"/>
<path d="M88.0207 221.547H95.2969V214.623H88.0207V221.547Z" fill="#FAFAFA"/>
<path d="M118.505 273.688H125.781V266.765H118.505V273.688Z" fill="#FAFAFA"/>
<path d="M108.35 273.688H115.626V266.765H108.35V273.688Z" fill="#FAFAFA"/>
<path d="M88.0207 273.688H95.2969V266.765H88.0207V273.688Z" fill="#FAFAFA"/>
<path d="M118.505 284.135H125.781V277.212H118.505V284.135Z" fill="#FAFAFA"/>
<path d="M98.1847 284.135H105.461V277.212H98.1847V284.135Z" fill="#FAFAFA"/>
<path d="M88.0207 284.135H95.2969V277.212H88.0207V284.135Z" fill="#FAFAFA"/>
<path d="M118.505 305.019H125.781V298.096H118.505V305.019Z" fill="#FAFAFA"/>
<path d="M98.1847 305.019H105.461V298.096H98.1847V305.019Z" fill="#FAFAFA"/>
<path d="M118.505 315.456H125.781V308.532H118.505V315.456Z" fill="#FAFAFA"/>
<path d="M108.35 315.456H115.626V308.532H108.35V315.456Z" fill="#FAFAFA"/>
<path d="M88.0207 315.456H95.2969V308.532H88.0207V315.456Z" fill="#FAFAFA"/>
<path d="M88.0207 231.993H95.2969V225.07H88.0207V231.993Z" fill="#FAFAFA"/>
<path d="M118.505 242.43H125.781V235.507H118.505V242.43Z" fill="#FAFAFA"/>
<path d="M108.35 242.43H115.626V235.507H108.35V242.43Z" fill="#FAFAFA"/>
<path d="M98.2451 253.001L105.521 252.902L105.416 245.979L98.1409 246.078L98.2451 253.001Z" fill="#FAFAFA"/>
<path d="M88.0781 253.131L95.3535 253.032L95.2494 246.11L87.9739 246.209L88.0781 253.131Z" fill="#FAFAFA"/>
<path d="M118.505 263.324H125.781V256.401H118.505V263.324Z" fill="#FAFAFA"/>
<path d="M183.578 340.473H237.704V122.533L183.578 128.04V340.473Z" fill="#F0F0F0"/>
<path d="M219.991 145.782H234.782V131.708H219.991V145.782Z" fill="#FAFAFA"/>
<path d="M203.245 145.782H218.036V131.708H203.245V145.782Z" fill="#F0F0F0"/>
<path d="M186.489 145.782H201.28V131.708H186.489V145.782Z" fill="#FAFAFA"/>
<path d="M219.991 161.51H234.782V147.436H219.991V161.51Z" fill="#FAFAFA"/>
<path d="M203.245 161.51H218.036V147.436H203.245V161.51Z" fill="#FAFAFA"/>
<path d="M186.489 161.51H201.28V147.436H186.489V161.51Z" fill="#FAFAFA"/>
<path d="M219.991 177.237H234.782V163.163H219.991V177.237Z" fill="#FAFAFA"/>
<path d="M203.245 177.237H218.036V163.163H203.245V177.237Z" fill="#F0F0F0"/>
<path d="M186.489 177.237H201.28V163.163H186.489V177.237Z" fill="#FAFAFA"/>
<path d="M219.991 192.954H234.782V178.88H219.991V192.954Z" fill="#F0F0F0"/>
<path d="M203.245 192.954H218.036V178.88H203.245V192.954Z" fill="#FAFAFA"/>
<path d="M186.489 192.954H201.28V178.88H186.489V192.954Z" fill="#FAFAFA"/>
<path d="M219.991 208.682H234.782V194.608H219.991V208.682Z" fill="#FAFAFA"/>
<path d="M203.245 208.682H218.036V194.608H203.245V208.682Z" fill="#FAFAFA"/>
<path d="M186.489 208.682H201.28V194.608H186.489V208.682Z" fill="#F0F0F0"/>
<path d="M219.991 224.388H234.782V210.314H219.991V224.388Z" fill="#FAFAFA"/>
<path d="M203.245 224.388H218.036V210.314H203.245V224.388Z" fill="#F0F0F0"/>
<path d="M186.489 224.388H201.28V210.314H186.489V224.388Z" fill="#FAFAFA"/>
<path d="M219.991 240.115H234.782V226.041H219.991V240.115Z" fill="#F0F0F0"/>
<path d="M203.245 240.115H218.036V226.041H203.245V240.115Z" fill="#F0F0F0"/>
<path d="M186.489 240.115H201.28V226.041H186.489V240.115Z" fill="#FAFAFA"/>
<path d="M219.991 255.843H234.782V241.769H219.991V255.843Z" fill="#FAFAFA"/>
<path d="M203.245 255.843H218.036V241.769H203.245V255.843Z" fill="#F0F0F0"/>
<path d="M186.489 255.843H201.28V241.769H186.489V255.843Z" fill="#FAFAFA"/>
<path d="M219.991 271.56H234.782V257.486H219.991V271.56Z" fill="#FAFAFA"/>
<path d="M203.245 271.56H218.036V257.486H203.245V271.56Z" fill="#FAFAFA"/>
<path d="M186.489 271.56H201.28V257.486H186.489V271.56Z" fill="#FAFAFA"/>
<path d="M219.991 287.277H234.782V273.203H219.991V287.277Z" fill="#F0F0F0"/>
<path d="M203.245 287.277H218.036V273.203H203.245V287.277Z" fill="#FAFAFA"/>
<path d="M186.489 287.277H201.28V273.203H186.489V287.277Z" fill="#F0F0F0"/>
<path d="M219.991 303.004H234.782V288.93H219.991V303.004Z" fill="#FAFAFA"/>
<path d="M203.245 303.004H218.036V288.93H203.245V303.004Z" fill="#F0F0F0"/>
<path d="M186.489 303.004H201.28V288.93H186.489V303.004Z" fill="#FAFAFA"/>
<path d="M219.991 318.721H234.782V304.647H219.991V318.721Z" fill="#F0F0F0"/>
<path d="M203.245 318.721H218.036V304.647H203.245V318.721Z" fill="#FAFAFA"/>
<path d="M186.489 318.721H201.28V304.647H186.489V318.721Z" fill="#FAFAFA"/>
<path d="M364.136 340.473H407.945V164.052L364.136 168.516V340.473Z" fill="#F0F0F0"/>
<path d="M393.61 182.879H405.589V171.481H393.61V182.879Z" fill="#FAFAFA"/>
<path d="M380.045 182.879H392.023V171.481H380.045V182.879Z" fill="#F0F0F0"/>
<path d="M366.481 182.879H378.46V171.481H366.481V182.879Z" fill="#FAFAFA"/>
<path d="M393.61 195.599H405.589V184.202H393.61V195.599Z" fill="#FAFAFA"/>
<path d="M380.045 195.599H392.023V184.202H380.045V195.599Z" fill="#FAFAFA"/>
<path d="M366.481 195.599H378.46V184.202H366.481V195.599Z" fill="#FAFAFA"/>
<path d="M393.61 208.34H405.589V196.943H393.61V208.34Z" fill="#FAFAFA"/>
<path d="M380.045 208.34H392.023V196.943H380.045V208.34Z" fill="#F0F0F0"/>
<path d="M366.481 208.34H378.46V196.943H366.481V208.34Z" fill="#FAFAFA"/>
<path d="M393.61 221.061H405.589V209.663H393.61V221.061Z" fill="#F0F0F0"/>
<path d="M380.045 221.061H392.023V209.663H380.045V221.061Z" fill="#FAFAFA"/>
<path d="M366.481 221.061H378.46V209.663H366.481V221.061Z" fill="#FAFAFA"/>
<path d="M393.61 233.781H405.589V222.383H393.61V233.781Z" fill="#FAFAFA"/>
<path d="M380.045 233.781H392.023V222.383H380.045V233.781Z" fill="#FAFAFA"/>
<path d="M366.481 233.781H378.46V222.383H366.481V233.781Z" fill="#F0F0F0"/>
<path d="M393.61 246.511H405.589V235.114H393.61V246.511Z" fill="#FAFAFA"/>
<path d="M380.045 246.511H392.023V235.114H380.045V246.511Z" fill="#F0F0F0"/>
<path d="M366.481 246.511H378.46V235.114H366.481V246.511Z" fill="#FAFAFA"/>
<path d="M393.61 259.232H405.589V247.834H393.61V259.232Z" fill="#F0F0F0"/>
<path d="M380.045 259.232H392.023V247.834H380.045V259.232Z" fill="#F0F0F0"/>
<path d="M366.481 259.232H378.46V247.834H366.481V259.232Z" fill="#FAFAFA"/>
<path d="M393.61 271.962H405.589V260.565H393.61V271.962Z" fill="#FAFAFA"/>
<path d="M380.045 271.962H392.023V260.565H380.045V271.962Z" fill="#F0F0F0"/>
<path d="M366.481 271.962H378.46V260.565H366.481V271.962Z" fill="#FAFAFA"/>
<path d="M393.61 284.683H405.589V273.285H393.61V284.683Z" fill="#FAFAFA"/>
<path d="M380.045 284.683H392.023V273.285H380.045V284.683Z" fill="#FAFAFA"/>
<path d="M366.481 284.683H378.46V273.285H366.481V284.683Z" fill="#FAFAFA"/>
<path d="M393.61 297.414H405.589V286.016H393.61V297.414Z" fill="#F0F0F0"/>
<path d="M380.045 297.414H392.023V286.016H380.045V297.414Z" fill="#FAFAFA"/>
<path d="M366.481 297.414H378.46V286.016H366.481V297.414Z" fill="#F0F0F0"/>
<path d="M393.61 310.134H405.589V298.736H393.61V310.134Z" fill="#FAFAFA"/>
<path d="M380.045 310.134H392.023V298.736H380.045V310.134Z" fill="#F0F0F0"/>
<path d="M366.481 310.134H378.46V298.736H366.481V310.134Z" fill="#FAFAFA"/>
<path d="M393.61 322.865H405.589V311.467H393.61V322.865Z" fill="#F0F0F0"/>
<path d="M380.045 322.865H392.023V311.467H380.045V322.865Z" fill="#FAFAFA"/>
<path d="M366.481 322.865H378.46V311.467H366.481V322.865Z" fill="#FAFAFA"/>
<path d="M135.055 340.886H178.875V164.465L135.055 168.929V340.886Z" fill="#F5F5F5"/>
<path d="M164.528 183.292H176.507V171.895H164.528V183.292Z" fill="#FAFAFA"/>
<path d="M150.977 183.292H162.955V171.895H150.977V183.292Z" fill="#F0F0F0"/>
<path d="M137.411 183.292H149.39V171.895H137.411V183.292Z" fill="#FAFAFA"/>
<path d="M164.528 196.013H176.507V184.615H164.528V196.013Z" fill="#FAFAFA"/>
<path d="M150.977 196.013H162.955V184.615H150.977V196.013Z" fill="#FAFAFA"/>
<path d="M137.411 196.013H149.39V184.615H137.411V196.013Z" fill="#FAFAFA"/>
<path d="M164.528 208.743H176.507V197.345H164.528V208.743Z" fill="#FAFAFA"/>
<path d="M150.977 208.743H162.955V197.345H150.977V208.743Z" fill="#F0F0F0"/>
<path d="M137.411 208.743H149.39V197.345H137.411V208.743Z" fill="#FAFAFA"/>
<path d="M164.528 221.474H176.507V210.076H164.528V221.474Z" fill="#F0F0F0"/>
<path d="M150.977 221.474H162.955V210.076H150.977V221.474Z" fill="#FAFAFA"/>
<path d="M137.411 221.474H149.39V210.076H137.411V221.474Z" fill="#FAFAFA"/>
<path d="M164.528 234.205H176.507V222.807H164.528V234.205Z" fill="#FAFAFA"/>
<path d="M150.977 234.205H162.955V222.807H150.977V234.205Z" fill="#FAFAFA"/>
<path d="M137.411 234.205H149.39V222.807H137.411V234.205Z" fill="#F0F0F0"/>
<path d="M164.528 246.925H176.507V235.527H164.528V246.925Z" fill="#FAFAFA"/>
<path d="M150.977 246.925H162.955V235.527H150.977V246.925Z" fill="#F0F0F0"/>
<path d="M137.411 246.925H149.39V235.527H137.411V246.925Z" fill="#FAFAFA"/>
<path d="M164.528 259.645H176.507V248.248H164.528V259.645Z" fill="#F0F0F0"/>
<path d="M150.977 259.645H162.955V248.248H150.977V259.645Z" fill="#F0F0F0"/>
<path d="M137.411 259.645H149.39V248.248H137.411V259.645Z" fill="#FAFAFA"/>
<path d="M164.528 272.376H176.507V260.978H164.528V272.376Z" fill="#FAFAFA"/>
<path d="M150.977 272.376H162.955V260.978H150.977V272.376Z" fill="#F0F0F0"/>
<path d="M137.411 272.376H149.39V260.978H137.411V272.376Z" fill="#FAFAFA"/>
<path d="M164.528 285.096H176.507V273.699H164.528V285.096Z" fill="#FAFAFA"/>
<path d="M150.977 285.096H162.955V273.699H150.977V285.096Z" fill="#FAFAFA"/>
<path d="M137.411 285.096H149.39V273.699H137.411V285.096Z" fill="#FAFAFA"/>
<path d="M164.528 297.827H176.507V286.429H164.528V297.827Z" fill="#F0F0F0"/>
<path d="M150.977 297.827H162.955V286.429H150.977V297.827Z" fill="#FAFAFA"/>
<path d="M137.411 297.827H149.39V286.429H137.411V297.827Z" fill="#F0F0F0"/>
<path d="M164.528 310.547H176.507V299.15H164.528V310.547Z" fill="#FAFAFA"/>
<path d="M150.977 310.547H162.955V299.15H150.977V310.547Z" fill="#F0F0F0"/>
<path d="M137.411 310.547H149.39V299.15H137.411V310.547Z" fill="#FAFAFA"/>
<path d="M164.528 323.278H176.507V311.88H164.528V323.278Z" fill="#F0F0F0"/>
<path d="M150.977 323.278H162.955V311.88H150.977V323.278Z" fill="#FAFAFA"/>
<path d="M137.411 323.278H149.39V311.88H137.411V323.278Z" fill="#FAFAFA"/>
<path d="M356.784 64.769C355.39 64.7465 354.033 65.1929 352.951 66.0297C353.184 64.8865 353.184 63.7112 352.951 62.568C352.357 59.8516 350.823 57.4031 348.595 55.614C346.366 53.825 343.571 52.7988 340.657 52.6997C339.02 52.6816 337.407 53.0813 335.987 53.857C334.902 51.9747 333.321 50.3928 331.401 49.2662C329.48 48.1395 327.285 47.5067 325.03 47.4297C319.274 47.4297 315.462 51.873 316.494 57.3393C316.581 57.7875 316.701 58.2295 316.852 58.662C315.934 58.4283 314.989 58.3068 314.039 58.3003C308.294 58.3003 304.472 62.7333 305.514 68.21C306.099 70.9323 307.627 73.389 309.854 75.186C312.082 76.983 314.879 78.0161 317.797 78.1197H359.304C360.178 78.1483 361.048 77.9846 361.845 77.6415C362.642 77.2984 363.345 76.785 363.9 76.1412C364.455 75.4974 364.846 74.7406 365.043 73.9296C365.24 73.1186 365.239 72.2752 365.038 71.465C364.653 69.6285 363.63 67.9689 362.132 66.754C360.635 65.5391 358.751 64.8398 356.784 64.769Z" fill="#FAFAFA"/>
<path d="M271.499 381C387.791 381 482.064 375.763 482.064 369.303C482.064 362.843 387.791 357.605 271.499 357.605C155.208 357.605 60.9346 362.843 60.9346 369.303C60.9346 375.763 155.208 381 271.499 381Z" fill="#F5F5F5"/>
<path d="M397.53 199.288H388.147C385.527 199.286 383.015 198.294 381.162 196.531C379.31 194.768 378.268 192.378 378.265 189.885V180.947C378.268 178.454 379.31 176.064 381.162 174.301C383.015 172.538 385.527 171.546 388.147 171.543H397.53C400.151 171.546 402.665 172.537 404.519 174.3C406.373 176.063 407.418 178.453 407.424 180.947V189.885C407.418 192.379 406.373 194.769 404.519 196.532C402.665 198.294 400.151 199.286 397.53 199.288ZM388.147 174.282C386.29 174.285 384.51 174.988 383.197 176.237C381.884 177.486 381.145 179.18 381.143 180.947V189.885C381.143 191.653 381.881 193.348 383.194 194.598C384.508 195.848 386.289 196.55 388.147 196.55H397.53C399.388 196.55 401.17 195.848 402.483 194.598C403.797 193.348 404.535 191.653 404.535 189.885V180.947C404.532 179.18 403.793 177.486 402.48 176.237C401.167 174.988 399.387 174.285 397.53 174.282H388.147Z" fill="#407BFF"/>
<g opacity="0.6">
<path d="M397.532 199.289H388.149C385.529 199.286 383.017 198.294 381.164 196.531C379.312 194.769 378.269 192.378 378.267 189.885V180.947C378.269 178.454 379.312 176.064 381.164 174.301C383.017 172.538 385.529 171.546 388.149 171.544H397.532C400.153 171.546 402.667 172.538 404.521 174.3C406.375 176.063 407.42 178.453 407.426 180.947V189.885C407.42 192.379 406.375 194.77 404.521 196.532C402.667 198.295 400.153 199.286 397.532 199.289ZM388.149 174.282C386.292 174.285 384.512 174.988 383.199 176.237C381.886 177.487 381.147 179.18 381.144 180.947V189.885C381.144 191.653 381.882 193.348 383.196 194.598C384.51 195.848 386.291 196.55 388.149 196.55H397.532C399.39 196.55 401.172 195.848 402.485 194.598C403.799 193.348 404.537 191.653 404.537 189.885V180.947C404.534 179.18 403.795 177.487 402.482 176.237C401.169 174.988 399.389 174.285 397.532 174.282H388.149Z" fill="white"/>
</g>
<path d="M391.819 193.048L378.125 180.028L382.197 176.142L391.819 185.298L409.25 168.713L413.322 172.588L391.819 193.048Z" fill="#407BFF"/>
<path d="M190.659 99.2722H182.362C180.063 99.256 177.863 98.3798 176.237 96.833C174.612 95.2862 173.691 93.193 173.674 91.0055V83.1005C173.677 80.9041 174.591 78.7977 176.218 77.2398C177.845 75.6818 180.054 74.7986 182.362 74.7822H190.659C192.977 74.785 195.199 75.6622 196.837 77.2216C198.476 78.781 199.398 80.8952 199.401 83.1005V90.9332C199.403 92.0269 199.178 93.1102 198.739 94.1212C198.3 95.1322 197.657 96.0511 196.845 96.8255C196.033 97.5998 195.069 98.2144 194.008 98.6343C192.946 99.0541 191.808 99.2708 190.659 99.2722ZM182.362 77.1589C180.719 77.1589 179.143 77.7791 177.981 78.8834C176.818 79.9877 176.164 81.4858 176.161 83.0489V90.9332C176.164 92.4963 176.818 93.9944 177.981 95.0987C179.143 96.203 180.719 96.8232 182.362 96.8232H190.659C192.301 96.8232 193.875 96.2026 195.036 95.0981C196.197 93.9935 196.849 92.4953 196.849 90.9332V83.0282C196.849 81.4661 196.197 79.9679 195.036 78.8634C193.875 77.7588 192.301 77.1382 190.659 77.1382L182.362 77.1589Z" fill="#407BFF"/>
<g opacity="0.6">
<path d="M190.66 99.2722H182.363C180.064 99.256 177.864 98.3798 176.238 96.833C174.613 95.2862 173.692 93.193 173.675 91.0055V83.1005C173.678 80.9041 174.592 78.7977 176.219 77.2398C177.846 75.6818 180.055 74.7986 182.363 74.7822H190.66C192.978 74.785 195.2 75.6622 196.838 77.2216C198.477 78.781 199.399 80.8952 199.402 83.1005V90.9332C199.404 92.0269 199.179 93.1102 198.74 94.1212C198.301 95.1322 197.658 96.0511 196.846 96.8255C196.034 97.5998 195.07 98.2144 194.009 98.6343C192.947 99.0541 191.809 99.2708 190.66 99.2722ZM182.363 77.1589C180.72 77.1589 179.144 77.7791 177.982 78.8834C176.819 79.9877 176.165 81.4858 176.162 83.0489V90.9332C176.165 92.4963 176.819 93.9944 177.982 95.0987C179.144 96.203 180.72 96.8232 182.363 96.8232H190.66C192.302 96.8232 193.876 96.2026 195.037 95.0981C196.198 93.9935 196.85 92.4953 196.85 90.9332V83.0282C196.85 81.4661 196.198 79.9679 195.037 78.8634C193.876 77.7588 192.302 77.1382 190.66 77.1382L182.363 77.1589Z" fill="white"/>
</g>
<path d="M185.599 93.7442L173.501 82.2329L177.096 78.8022L185.599 86.8932L201.009 72.2302L204.615 75.6609L185.599 93.7442Z" fill="#407BFF"/>
<path d="M434.399 87.4201C425.863 85.4953 417.766 82.1056 410.507 77.4175C403.25 82.1075 395.153 85.4973 386.615 87.4201C383.496 88.126 380.333 88.6472 377.146 88.9805C377.146 89.1148 377.146 89.2595 377.146 89.3938C377.146 117.294 390.308 136.772 410.518 152.003C430.729 136.772 443.891 117.304 443.891 89.3938C443.891 89.2595 443.891 89.1148 443.891 88.9805C440.696 88.6476 437.526 88.1265 434.399 87.4201Z" fill="#407BFF"/>
<path opacity="0.1" d="M410.507 77.4175C403.25 82.1075 395.153 85.4973 386.615 87.4201C383.496 88.126 380.333 88.6472 377.146 88.9805C377.146 89.1148 377.146 89.2595 377.146 89.3938C377.146 117.294 390.308 136.772 410.518 152.003L410.507 77.4175Z" fill="black"/>
<g opacity="0.5">
<path d="M410.507 146.94L409.616 146.217C391.404 131.378 382.466 114.659 381.38 93.579L381.326 92.4217L382.521 92.2254C384.237 91.9464 385.953 91.6157 387.603 91.192C395.436 89.4267 402.927 86.4974 409.801 82.512L410.518 82.0884L411.235 82.512C418.11 86.4955 425.6 89.4247 433.432 91.192C435.105 91.5744 436.81 91.905 438.515 92.2254L439.72 92.4217L439.655 93.579C438.569 114.659 429.621 131.389 411.419 146.217L410.507 146.94ZM384.182 94.602C385.442 114.029 393.837 129.611 410.507 143.489C427.177 129.622 435.572 114.029 436.832 94.602C435.474 94.3644 434.117 94.0854 432.781 93.7754C424.942 92.0071 417.432 89.1152 410.507 85.1987C403.583 89.1169 396.072 92.009 388.233 93.7754C386.908 94.0854 385.529 94.354 384.182 94.602Z" fill="white"/>
</g>
<path opacity="0.9" d="M410.507 143.489C393.837 129.611 385.442 114.028 384.182 94.6017C385.551 94.3537 386.908 94.085 388.233 93.775C396.072 92.0087 403.583 89.1166 410.507 85.1984V82.0984L409.79 82.5221C402.916 86.5074 395.425 89.4367 387.593 91.202C385.942 91.5844 384.226 91.915 382.51 92.2354L381.315 92.4317L381.37 93.5891C382.456 114.669 391.404 131.388 409.606 146.227L410.496 146.95L410.507 143.489Z" fill="#F0F0F0"/>
<g opacity="0.2">
<path d="M408.618 126.728L394.012 112.819L398.356 108.686L408.618 118.451L427.222 100.75L431.576 104.883L408.618 126.728Z" fill="#407BFF"/>
</g>
<g opacity="0.9">
<path d="M408.618 126.728L394.012 112.819L398.356 108.686L408.618 118.451L427.222 100.75L431.576 104.883L408.618 126.728Z" fill="white"/>
</g>
<path d="M347.564 76.4045H309.63V109.957H347.564V76.4045Z" fill="#407BFF"/>
<path opacity="0.3" d="M347.564 76.4045H309.63V109.957H347.564V76.4045Z" fill="white"/>
<path d="M364.396 76.4045H345.435V109.957H364.396V76.4045Z" fill="#407BFF"/>
<path d="M334.542 82.9868H322.629V109.957H334.542V82.9868Z" fill="#263238"/>
<path d="M325.605 82.9868H322.629V109.957H325.605V82.9868Z" fill="#407BFF"/>
<path d="M324.225 105.483H225.432V372.496H324.225V105.483Z" fill="#407BFF"/>
<path opacity="0.6" d="M324.225 105.483H225.432V372.496H324.225V105.483Z" fill="white"/>
<path d="M322.748 105.483V144.966H300.952V153.719H322.748V187.56H300.952V196.313H322.748V230.154H300.952V238.907H322.748V272.748H300.952V281.5H322.748V315.342H300.952V324.094H322.748V372.496H369.457V105.483H322.748Z" fill="#407BFF"/>
<path opacity="0.2" d="M322.748 105.483V144.966H300.952V153.719H322.748V187.56H300.952V196.313H322.748V230.154H300.952V238.907H322.748V272.748H300.952V281.5H322.748V315.342H300.952V324.094H322.748V372.496H369.457V105.483H322.748Z" fill="white"/>
<path d="M302.18 315.342H211.597V324.094H302.18V315.342Z" fill="#407BFF"/>
<path d="M302.18 272.748H211.597V281.5H302.18V272.748Z" fill="#407BFF"/>
<path d="M302.18 230.155H211.597V238.907H302.18V230.155Z" fill="#407BFF"/>
<path d="M302.18 187.56H211.597V196.312H302.18V187.56Z" fill="#407BFF"/>
<path d="M302.18 144.966H211.597V153.718H302.18V144.966Z" fill="#407BFF"/>
<g opacity="0.4">
<path d="M302.18 315.342H211.597V324.094H302.18V315.342Z" fill="white"/>
<path d="M302.18 272.748H211.597V281.501H302.18V272.748Z" fill="white"/>
<path d="M302.18 230.155H211.597V238.907H302.18V230.155Z" fill="white"/>
<path d="M302.18 187.56H211.597V196.313H302.18V187.56Z" fill="white"/>
<path d="M302.18 144.966H211.597V153.718H302.18V144.966Z" fill="white"/>
</g>
<path d="M303.69 333.663H245.979V372.496H303.69V333.663Z" fill="#407BFF"/>
<path d="M257.709 115.785H233.795V138.539H257.709V115.785Z" fill="#407BFF"/>
<path d="M286.226 115.785H262.312V138.539H286.226V115.785Z" fill="#407BFF"/>
<path opacity="0.7" d="M314.745 115.785H290.831V138.539H314.745V115.785Z" fill="white"/>
<path opacity="0.7" d="M257.709 159.257H233.795V182.011H257.709V159.257Z" fill="white"/>
<path d="M286.226 159.257H262.312V182.011H286.226V159.257Z" fill="#407BFF"/>
<path opacity="0.7" d="M314.745 159.257H290.831V182.011H314.745V159.257Z" fill="white"/>
<path opacity="0.7" d="M257.709 201.851H233.795V224.605H257.709V201.851Z" fill="white"/>
<path opacity="0.7" d="M286.226 201.851H262.312V224.605H286.226V201.851Z" fill="white"/>
<path d="M314.745 201.851H290.831V224.605H314.745V201.851Z" fill="#407BFF"/>
<path opacity="0.7" d="M257.709 244.445H233.795V267.199H257.709V244.445Z" fill="white"/>
<path d="M286.226 244.445H262.312V267.199H286.226V244.445Z" fill="#407BFF"/>
<path opacity="0.7" d="M314.745 244.445H290.831V267.199H314.745V244.445Z" fill="white"/>
<path d="M257.709 287.05H233.795V309.804H257.709V287.05Z" fill="#407BFF"/>
<path d="M286.226 287.05H262.312V309.804H286.226V287.05Z" fill="#407BFF"/>
<path opacity="0.7" d="M314.745 287.05H290.831V309.804H314.745V287.05Z" fill="white"/>
<path d="M236.314 115.785H233.795V138.539H236.314V115.785Z" fill="#407BFF"/>
<path d="M264.832 115.785H262.312V138.539H264.832V115.785Z" fill="#407BFF"/>
<path d="M293.351 115.785H290.831V138.539H293.351V115.785Z" fill="#407BFF"/>
<path d="M236.314 159.257H233.795V182.011H236.314V159.257Z" fill="#407BFF"/>
<path d="M264.832 159.257H262.312V182.011H264.832V159.257Z" fill="#407BFF"/>
<path d="M293.351 159.257H290.831V182.011H293.351V159.257Z" fill="#407BFF"/>
<path d="M236.314 201.851H233.795V224.605H236.314V201.851Z" fill="#407BFF"/>
<path d="M264.832 201.851H262.312V224.605H264.832V201.851Z" fill="#407BFF"/>
<path d="M293.351 201.851H290.831V224.605H293.351V201.851Z" fill="#407BFF"/>
<path d="M236.314 244.445H233.795V267.199H236.314V244.445Z" fill="#407BFF"/>
<path d="M264.832 244.445H262.312V267.199H264.832V244.445Z" fill="#407BFF"/>
<path d="M293.351 244.445H290.831V267.199H293.351V244.445Z" fill="#407BFF"/>
<path d="M236.314 287.05H233.795V309.804H236.314V287.05Z" fill="#407BFF"/>
<path d="M264.832 287.05H262.312V309.804H264.832V287.05Z" fill="#407BFF"/>
<path d="M293.351 287.05H290.831V309.804H293.351V287.05Z" fill="#407BFF"/>
<g opacity="0.2">
<path d="M236.314 115.785H233.795V138.539H236.314V115.785Z" fill="black"/>
<path d="M264.832 115.785H262.312V138.539H264.832V115.785Z" fill="black"/>
<path d="M293.351 115.785H290.831V138.539H293.351V115.785Z" fill="black"/>
<path d="M236.314 159.257H233.795V182.011H236.314V159.257Z" fill="black"/>
<path d="M264.832 159.257H262.312V182.011H264.832V159.257Z" fill="black"/>
<path d="M293.351 159.257H290.831V182.011H293.351V159.257Z" fill="black"/>
<path d="M236.314 201.851H233.795V224.605H236.314V201.851Z" fill="black"/>
<path d="M264.832 201.851H262.312V224.605H264.832V201.851Z" fill="black"/>
<path d="M293.351 201.851H290.831V224.605H293.351V201.851Z" fill="black"/>
<path d="M236.314 244.445H233.795V267.199H236.314V244.445Z" fill="black"/>
<path d="M264.832 244.445H262.312V267.199H264.832V244.445Z" fill="black"/>
<path d="M293.351 244.445H290.831V267.199H293.351V244.445Z" fill="black"/>
<path d="M236.314 287.05H233.795V309.804H236.314V287.05Z" fill="black"/>
<path d="M264.832 287.05H262.312V309.804H264.832V287.05Z" fill="black"/>
<path d="M293.351 287.05H290.831V309.804H293.351V287.05Z" fill="black"/>
</g>
<path opacity="0.4" d="M300.932 336.288H274.835V372.496H300.932V336.288Z" fill="white"/>
<path opacity="0.7" d="M274.835 336.288H248.738V372.496H274.835V336.288Z" fill="white"/>
<path d="M251.497 336.288H248.738V372.496H251.497V336.288Z" fill="#407BFF"/>
<path opacity="0.2" d="M251.497 336.288H248.738V372.496H251.497V336.288Z" fill="black"/>
<path d="M109.686 159.278C110.135 157.278 110.794 155.325 111.652 153.45C112.553 151.383 113.574 149.317 114.692 147.25C115.811 145.183 116.984 143.117 118.179 141.05C119.373 138.983 120.687 136.917 121.903 134.995L112.303 129.167C110.783 131.368 109.491 133.496 108.176 135.718C106.862 137.94 105.657 140.182 104.495 142.486C103.333 144.791 102.323 147.188 101.335 149.72C100.287 152.389 99.5586 155.162 99.1626 157.986C99.0646 158.951 99.0392 159.922 99.0866 160.89H109.447C109.476 160.347 109.556 159.808 109.686 159.278Z" fill="#CE7A63"/>
<path d="M188.487 136.586C186.077 140.598 183.381 144.447 180.418 148.108C179.746 148.919 179.021 149.689 178.246 150.412C177.648 150.996 176.964 151.494 176.215 151.89H176.096C176.096 151.89 175.705 151.663 175.248 151.229C173.807 149.88 172.542 148.37 171.48 146.734C170.275 144.894 169.102 142.91 168.005 140.864C166.908 138.818 165.833 136.731 164.834 134.602C163.835 132.474 162.825 130.273 161.923 128.227L151.356 132.091C152.323 134.571 153.366 136.803 154.462 139.118C155.559 141.433 156.765 143.675 158.057 145.917C159.377 148.209 160.827 150.431 162.401 152.572C163.226 153.667 164.106 154.752 165.083 155.837C166.137 157.014 167.312 158.087 168.591 159.041C169.361 159.614 170.186 160.115 171.056 160.539C172.162 161.072 173.356 161.422 174.586 161.572C175.968 161.718 177.366 161.569 178.68 161.138C179.719 160.795 180.696 160.304 181.58 159.681C182.955 158.717 184.183 157.577 185.229 156.292C186.131 155.194 186.951 154.037 187.683 152.83C189.057 150.572 190.244 148.216 191.234 145.783C192.219 143.425 193.043 141.009 193.7 138.55L188.487 136.586Z" fill="#CE7A63"/>
<path d="M173.868 145.318L162.074 153.698C162.074 153.698 161.618 153.223 160.869 152.396C160.326 151.797 159.62 150.991 158.805 150.05C154.222 144.739 147.522 135.036 147.468 130.293C147.381 123.204 155.07 122.161 163.758 129.404C167.493 132.504 169.448 137.723 171.36 140.936C171.989 141.97 172.522 142.92 172.934 143.644C173.542 144.667 173.868 145.318 173.868 145.318Z" fill="#263238"/>
<path opacity="0.5" d="M173.868 145.318L162.074 153.698C162.074 153.698 161.618 153.223 160.869 152.396C160.326 151.797 159.62 150.991 158.805 150.05C154.222 144.739 147.522 135.036 147.468 130.293C147.381 123.204 155.07 122.161 163.758 129.404C167.493 132.504 169.448 137.723 171.36 140.936C171.989 141.97 172.522 142.92 172.934 143.644C173.542 144.667 173.868 145.318 173.868 145.318Z" fill="white"/>
<path opacity="0.2" d="M147.392 131.109C150.053 129.425 151.996 133.765 157.274 137.433C159.62 139.076 164.768 149.73 164.344 152.086L162.075 153.698C162.075 153.698 147.327 138.167 147.392 131.109Z" fill="black"/>
<path d="M187.574 138.291L191.777 131.058L195.621 140.575C195.621 140.575 190.865 144.357 188.432 141.815L187.574 138.291Z" fill="#CE7A63"/>
<path d="M196.653 130.975L198.347 138.095L195.621 140.533L191.776 131.016L196.653 130.975Z" fill="#CE7A63"/>
<path d="M188.258 137.733C188.179 136.423 187.87 135.134 187.346 133.92C186.694 132.515 185.174 131.337 185.489 130.562C185.641 130.221 186.575 130.055 186.955 130.138C187.856 130.536 188.612 131.18 189.127 131.988C189.637 132.835 191.06 135.801 191.06 135.801L188.258 137.733Z" fill="#CE7A63"/>
<path d="M146.784 91.4397C146.784 91.4397 150.042 92.8864 148.533 95.201C148.905 95.4418 149.22 95.7531 149.459 96.1155C149.698 96.4779 149.856 96.8835 149.922 97.3067C149.988 97.7299 149.962 98.1616 149.844 98.5746C149.727 98.9875 149.52 99.3729 149.239 99.7064C149.239 99.7064 149.423 103.964 146.784 101.494C144.145 99.0244 143.353 92.0907 143.353 92.0907L146.784 91.4397Z" fill="#263238"/>
<path d="M124.521 137.609C122.649 142.549 120.473 147.379 118.005 152.076C117.473 153.109 116.919 154.07 116.571 154.835C115.865 156.157 115.42 156.963 115.42 156.963L100.292 148.996C100.292 148.996 100.487 148.387 100.824 147.374C101.096 146.609 101.432 145.597 101.91 144.439C104.43 137.609 109.577 125.416 114.616 124.723C122.153 123.628 127.583 128.991 124.521 137.609Z" fill="#263238"/>
<path opacity="0.5" d="M124.521 137.609C122.649 142.549 120.473 147.379 118.005 152.076C117.473 153.109 116.919 154.07 116.571 154.835C115.865 156.157 115.42 156.963 115.42 156.963L100.292 148.996C100.292 148.996 100.487 148.387 100.824 147.374C101.096 146.609 101.432 145.597 101.91 144.439C104.43 137.609 109.577 125.416 114.616 124.723C122.153 123.628 127.583 128.991 124.521 137.609Z" fill="white"/>
<path d="M180.862 363.692L187.965 361.501L183.556 345.567L176.453 347.758L180.862 363.692Z" fill="#CE7A63"/>
<path d="M188.074 360.633L180.092 363.092C180.024 363.11 179.96 363.141 179.905 363.182C179.849 363.224 179.803 363.275 179.768 363.334C179.734 363.393 179.712 363.457 179.704 363.524C179.697 363.591 179.703 363.658 179.723 363.723L181.384 369.85C181.491 370.166 181.725 370.428 182.034 370.581C182.343 370.733 182.702 370.764 183.035 370.667C185.804 369.757 187.075 369.199 190.637 368.114C192.809 367.443 202.051 364.828 205.026 363.909C208.002 362.989 206.97 360.209 205.613 360.344C199.564 360.953 192.005 361.553 189.497 360.664C189.039 360.502 188.538 360.491 188.074 360.633Z" fill="#263238"/>
<path opacity="0.2" d="M176.453 347.758L183.556 345.567L185.825 353.782L178.723 355.973L176.453 347.758Z" fill="black"/>
<path d="M159.142 186.444C159.142 186.444 169.22 244.311 172.174 264.451C175.432 286.543 188.301 351.157 188.301 351.157L175.117 354.619C175.117 354.619 156.383 292.01 150.953 270.527C145.197 247.225 132.491 186.444 132.491 186.444H159.142Z" fill="#263238"/>
<path opacity="0.4" d="M142.949 210.159C148.108 222.415 148.694 243.226 146.598 251.792C143.438 237.77 139.811 220.999 137.02 207.958C138.019 204.6 139.821 202.709 142.949 210.159Z" fill="black"/>
<path d="M174.825 354.867L188.943 351.168L188.672 345.691L172.772 350.92L174.825 354.867Z" fill="#263238"/>
<path d="M190.995 361.005C190.349 361.179 189.687 361.293 189.018 361.346C188.984 361.348 188.95 361.341 188.92 361.327C188.889 361.312 188.863 361.291 188.844 361.264C188.826 361.236 188.816 361.203 188.816 361.171C188.816 361.138 188.826 361.105 188.844 361.078C189.018 360.861 190.582 358.928 191.559 359.011C191.67 359.015 191.777 359.047 191.871 359.103C191.964 359.159 192.04 359.238 192.092 359.331C192.191 359.463 192.252 359.618 192.267 359.78C192.282 359.942 192.252 360.104 192.178 360.251C191.892 360.629 191.472 360.897 190.995 361.005ZM189.387 361.005C190.745 360.85 191.668 360.53 191.896 360.117C191.938 360.019 191.953 359.912 191.94 359.807C191.927 359.703 191.885 359.603 191.82 359.517C191.799 359.468 191.762 359.426 191.716 359.397C191.67 359.368 191.615 359.352 191.559 359.352C191.038 359.29 190.05 360.22 189.387 360.974V361.005Z" fill="#407BFF"/>
<path d="M189.05 361.336H188.964C188.934 361.332 188.906 361.32 188.883 361.302C188.86 361.283 188.843 361.259 188.833 361.233C188.833 361.15 187.975 359.259 188.464 358.381C188.526 358.266 188.615 358.167 188.724 358.092C188.834 358.016 188.96 357.967 189.094 357.947C189.236 357.903 189.39 357.908 189.529 357.961C189.668 358.013 189.783 358.111 189.854 358.236C190.267 358.918 189.691 360.654 189.116 361.274C189.103 361.301 189.079 361.323 189.05 361.336ZM189.05 358.298C188.983 358.317 188.921 358.349 188.867 358.392C188.813 358.435 188.768 358.487 188.735 358.546C188.566 359.319 188.662 360.122 189.007 360.84C189.495 360.121 189.677 359.253 189.517 358.412C189.463 358.319 189.376 358.226 189.126 358.277L189.05 358.298Z" fill="#407BFF"/>
<path d="M109.403 366.802H116.864L119.351 350.352H111.89L109.403 366.802Z" fill="#CE7A63"/>
<path d="M117.342 365.976H108.947C108.802 365.974 108.662 366.023 108.552 366.112C108.443 366.201 108.371 366.325 108.35 366.461L107.361 372.775C107.339 372.94 107.355 373.107 107.408 373.266C107.46 373.425 107.549 373.57 107.666 373.693C107.784 373.816 107.929 373.913 108.09 373.978C108.251 374.042 108.425 374.072 108.599 374.067C111.521 374.015 112.943 373.85 116.625 373.85C118.895 373.85 128.571 374.077 131.655 374.077C134.739 374.077 134.913 371.122 133.664 370.863C127.822 369.665 120.632 368.011 118.623 366.43C118.268 366.135 117.813 365.974 117.342 365.976Z" fill="#263238"/>
<path opacity="0.2" d="M111.88 350.352H119.352L118.07 358.835H110.599L111.88 350.352Z" fill="black"/>
<path d="M145.62 186.083C145.62 186.083 141.342 240.374 138.257 260.72C134.891 282.989 121.457 356.82 121.457 356.82H107.784C107.784 356.82 114.811 284.818 116.016 262.787C117.319 238.855 119.85 186.134 119.85 186.134L145.62 186.083Z" fill="#263238"/>
<path d="M107.233 356.789H122.013L123.284 351.85L106.907 352.615L107.233 356.789Z" fill="#263238"/>
<path d="M119.873 367.215C119.209 367.202 118.55 367.115 117.907 366.957C117.875 366.952 117.846 366.937 117.824 366.915C117.803 366.892 117.79 366.863 117.788 366.833C117.782 366.8 117.787 366.766 117.802 366.737C117.818 366.707 117.843 366.683 117.875 366.668C118.124 366.502 120.361 365.128 121.241 365.469C121.343 365.508 121.431 365.574 121.496 365.657C121.561 365.741 121.601 365.84 121.61 365.944C121.638 366.106 121.625 366.272 121.573 366.429C121.52 366.585 121.428 366.727 121.306 366.843C120.889 367.124 120.382 367.255 119.873 367.215ZM118.407 366.719C119.721 366.978 120.709 366.936 121.078 366.606C121.159 366.531 121.219 366.437 121.251 366.334C121.283 366.231 121.287 366.122 121.263 366.017C121.26 365.966 121.242 365.917 121.211 365.875C121.18 365.833 121.138 365.8 121.089 365.779C120.611 365.593 119.319 366.192 118.374 366.719H118.407Z" fill="#407BFF"/>
<path d="M117.939 366.967H117.863C117.839 366.954 117.819 366.934 117.805 366.91C117.792 366.887 117.786 366.86 117.787 366.833C117.787 366.75 117.787 364.704 118.624 364.012C118.725 363.923 118.846 363.857 118.977 363.817C119.108 363.778 119.247 363.767 119.384 363.785C119.527 363.788 119.665 363.84 119.772 363.931C119.88 364.021 119.95 364.145 119.97 364.281C120.068 365.056 118.819 366.544 118.037 366.967H117.939ZM119.232 364.084C119.087 364.085 118.948 364.137 118.841 364.229C118.371 364.898 118.128 365.688 118.146 366.492C118.841 365.965 119.688 364.839 119.623 364.332C119.623 364.229 119.558 364.115 119.308 364.095L119.232 364.084Z" fill="#407BFF"/>
<path d="M159.141 186.444H119.198C118.916 183.045 119.741 171.978 119.133 157.955C118.756 147.532 117.426 137.159 115.158 126.956C114.985 126.191 114.8 125.436 114.604 124.672C114.604 124.672 116.635 124.279 119.535 123.876C121.946 123.535 124.965 123.194 127.93 123.06C133.58 122.755 139.243 122.755 144.893 123.06C147.499 123.287 150.052 123.701 152.082 124.093C154.689 124.589 156.22 125.023 156.22 125.023C156.22 125.023 166.059 146.485 159.141 186.444Z" fill="#263238"/>
<path opacity="0.5" d="M159.141 186.444H119.198C118.916 183.045 119.741 171.978 119.133 157.955C118.756 147.532 117.426 137.159 115.158 126.956C114.985 126.191 114.8 125.436 114.604 124.672C114.604 124.672 116.635 124.279 119.535 123.876C121.946 123.535 124.965 123.194 127.93 123.06C133.58 122.755 139.243 122.755 144.893 123.06C147.499 123.287 150.052 123.701 152.082 124.093C154.689 124.589 156.22 125.023 156.22 125.023C156.22 125.023 166.059 146.485 159.141 186.444Z" fill="white"/>
<path d="M133.839 132.463L138.031 127.441L139.019 126.222L141.256 127.359L146.61 131.234C150.954 127.762 148.782 124.651 147.902 123.411C146.925 123.277 145.915 123.153 144.883 123.06C139.23 122.755 133.563 122.755 127.909 123.06C126.682 123.06 125.433 123.205 124.228 123.318C125.094 125.383 126.393 127.259 128.045 128.831C129.697 130.403 131.668 131.639 133.839 132.463Z" fill="#263238"/>
<path opacity="0.7" d="M133.839 132.463L138.031 127.441L139.019 126.222L141.256 127.359L146.61 131.234C150.954 127.762 148.782 124.651 147.902 123.411C146.925 123.277 145.915 123.153 144.883 123.06C139.23 122.755 133.563 122.755 127.909 123.06C126.682 123.06 125.433 123.205 124.228 123.318C125.094 125.383 126.393 127.259 128.045 128.831C129.697 130.403 131.668 131.639 133.839 132.463Z" fill="white"/>
<path d="M128.29 104.945L132.829 108.531L139.02 113.418C138.835 114.202 138.7 114.996 138.618 115.795C138.292 118.988 139.161 121.892 144.048 123.028C144.048 123.028 149.901 126.717 141.213 127.389C141.185 128.288 141.04 129.18 140.779 130.045C140.015 129.037 139.07 128.166 137.988 127.472C128.485 127.317 127.226 123.132 127.226 123.132C130.972 119.629 129.55 110.153 128.29 104.945Z" fill="#CE7A63"/>
<path opacity="0.2" d="M139.008 113.418C138.823 114.202 138.689 114.996 138.606 115.795C136.304 115.351 133.176 113.015 132.905 110.773C132.788 110.031 132.759 109.279 132.818 108.531L139.008 113.418Z" fill="black"/>
<path d="M126.411 97.4641C127.997 104.367 128.583 108.479 132.841 111.631C134.223 112.668 135.877 113.326 137.623 113.534C139.37 113.742 141.143 113.492 142.752 112.812C144.36 112.131 145.743 111.045 146.75 109.672C147.757 108.298 148.351 106.689 148.468 105.018C149.033 98.5801 146.296 88.3604 138.694 86.4178C137.053 85.9568 135.314 85.9137 133.65 86.2929C131.986 86.672 130.456 87.4601 129.213 88.5784C127.969 89.6966 127.056 91.1059 126.564 92.6652C126.073 94.2245 126.02 95.8793 126.411 97.4641Z" fill="#CE7A63"/>
<path d="M135.977 99.9441C136.064 100.512 136.465 100.977 136.856 100.895C137.247 100.812 137.486 100.357 137.389 99.7891C137.291 99.2208 136.911 98.7557 136.52 98.8384C136.129 98.9211 135.89 99.3758 135.977 99.9441Z" fill="#263238"/>
<path d="M142.734 99.1999C142.831 99.7683 143.222 100.233 143.613 100.151C144.004 100.068 144.243 99.6133 144.156 99.045C144.069 98.4766 143.668 98.0116 143.277 98.0943C142.886 98.1769 142.647 98.6109 142.734 99.1999Z" fill="#263238"/>
<path d="M141.582 99.7063C142.578 101.362 143.801 102.884 145.22 104.232C144.851 104.555 144.411 104.797 143.933 104.94C143.454 105.083 142.948 105.123 142.451 105.059L141.582 99.7063Z" fill="#BA4D3C"/>
<path d="M141.071 107.125C140.372 107.136 139.678 107.011 139.031 106.757C138.385 106.503 137.801 106.125 137.314 105.648C137.296 105.632 137.283 105.613 137.274 105.591C137.265 105.57 137.26 105.548 137.261 105.525C137.261 105.502 137.267 105.479 137.277 105.459C137.287 105.438 137.302 105.419 137.32 105.404C137.338 105.389 137.359 105.378 137.382 105.371C137.405 105.364 137.429 105.362 137.453 105.364C137.477 105.367 137.5 105.374 137.521 105.385C137.542 105.397 137.56 105.412 137.574 105.431C138.114 105.938 138.768 106.321 139.487 106.55C140.206 106.78 140.971 106.849 141.723 106.753C141.746 106.753 141.768 106.758 141.789 106.766C141.81 106.774 141.83 106.786 141.846 106.802C141.862 106.817 141.875 106.835 141.883 106.855C141.892 106.875 141.897 106.897 141.897 106.919C141.897 106.94 141.892 106.962 141.883 106.982C141.875 107.002 141.862 107.02 141.846 107.036C141.83 107.051 141.81 107.063 141.789 107.071C141.768 107.08 141.746 107.084 141.723 107.084C141.507 107.111 141.289 107.125 141.071 107.125Z" fill="#263238"/>
<path d="M134.501 98.1667C134.444 98.1822 134.384 98.1822 134.327 98.1667C134.246 98.1231 134.187 98.0513 134.16 97.9665C134.134 97.8817 134.143 97.7904 134.186 97.712C134.447 97.2427 134.825 96.8417 135.287 96.5444C135.749 96.247 136.281 96.0625 136.836 96.007C136.883 96.0042 136.929 96.0104 136.973 96.0251C137.017 96.0398 137.058 96.0628 137.092 96.0927C137.127 96.1226 137.154 96.1587 137.174 96.1991C137.193 96.2394 137.204 96.283 137.205 96.3273C137.208 96.3716 137.202 96.416 137.186 96.4578C137.171 96.4997 137.147 96.5381 137.115 96.5709C137.084 96.6037 137.046 96.6301 137.003 96.6487C136.961 96.6672 136.915 96.6774 136.869 96.6787C136.435 96.7274 136.02 96.8762 135.661 97.1121C135.301 97.348 135.007 97.6639 134.805 98.0323C134.771 98.0773 134.725 98.1132 134.671 98.1367C134.618 98.1602 134.56 98.1705 134.501 98.1667Z" fill="#263238"/>
<path d="M146.23 96.6475C146.173 96.646 146.117 96.6321 146.066 96.6071C146.015 96.5821 145.971 96.5464 145.937 96.5029C145.699 96.1477 145.38 95.848 145.004 95.6262C144.628 95.4044 144.205 95.266 143.765 95.2215C143.67 95.2189 143.581 95.1822 143.514 95.1188C143.448 95.0554 143.409 94.9702 143.406 94.8806C143.406 94.7901 143.444 94.7034 143.511 94.6394C143.578 94.5755 143.67 94.5396 143.765 94.5396C144.33 94.5778 144.879 94.7405 145.367 95.0149C145.855 95.2892 146.269 95.6677 146.577 96.1205C146.629 96.1954 146.649 96.2863 146.633 96.3746C146.617 96.463 146.566 96.5422 146.49 96.5959C146.453 96.6204 146.41 96.6375 146.366 96.6464C146.321 96.6553 146.275 96.6557 146.23 96.6475Z" fill="#263238"/>
<path d="M124.444 122.905C124.63 122.88 124.819 122.906 124.99 122.979C125.161 123.052 125.307 123.17 125.411 123.318C128.332 127.575 148.89 157.935 149.9 170.19C150.291 174.933 146.012 185.618 143.286 191.89C142.688 193.255 141.625 194.39 140.269 195.113C138.912 195.836 137.34 196.106 135.804 195.879L119.861 193.502C119.512 193.45 119.177 193.331 118.876 193.153C118.576 192.974 118.317 192.74 118.114 192.464C117.911 192.188 117.769 191.876 117.696 191.547C117.623 191.217 117.621 190.877 117.689 190.547C118.277 187.517 118.553 184.441 118.515 181.36C118.515 173.404 118.048 152.045 118.048 152.045C118.048 152.045 124.564 140.068 116.788 125.178C116.719 125.044 116.685 124.896 116.689 124.747C116.692 124.598 116.732 124.452 116.807 124.321C116.881 124.19 116.987 124.077 117.116 123.993C117.245 123.908 117.393 123.854 117.548 123.835L124.444 122.905Z" fill="#407BFF"/>
<path opacity="0.1" d="M149.868 170.19C149.39 164.393 144.535 154.545 139.246 145.328C136.77 155.031 134.674 165.416 135.272 170.955C135.75 175.408 140.419 184.657 143.732 190.764C146.479 184.429 150.269 174.633 149.868 170.19Z" fill="black"/>
<path opacity="0.6" d="M145.632 157.366C144.948 155.92 144.209 154.432 143.46 152.923C139.974 153.026 136.553 153.047 133.349 153.016C131.487 142.63 128.105 132.543 123.304 123.049L118.33 123.711C123.131 132.949 126.531 142.787 128.43 152.933C124.086 152.83 120.382 152.665 118.08 152.541C118.08 153.326 118.134 154.948 118.178 157.056C120.708 157.201 124.585 157.377 129.201 157.47C131.081 169.832 130.766 182.407 128.267 194.67L132.947 195.372C135.488 182.887 135.855 170.089 134.033 157.49H135.749C138.931 157.552 142.265 157.501 145.632 157.366Z" fill="white"/>
<path d="M149.065 123.029C148.941 123.003 148.813 123.005 148.69 123.034C148.567 123.064 148.453 123.119 148.356 123.197C148.26 123.275 148.183 123.373 148.133 123.484C148.083 123.594 148.06 123.714 148.066 123.835C148.18 128.579 147.58 133.315 146.285 137.898C143.103 149.265 136.717 163.959 137.477 170.965C137.977 175.656 143.135 185.669 146.448 191.714C147.208 193.102 148.463 194.187 149.987 194.774C151.512 195.361 153.206 195.412 154.766 194.918L159.339 193.471C159.932 193.283 160.436 192.9 160.76 192.39C161.084 191.881 161.208 191.279 161.109 190.691C160.729 188.253 160.435 183.458 161.608 174.974C163.476 161.469 161.608 143.974 161.608 143.974C158.962 137.919 157.205 131.545 156.385 125.033C156.36 124.869 156.284 124.716 156.165 124.594C156.047 124.472 155.892 124.388 155.722 124.351L149.065 123.029Z" fill="#407BFF"/>
<path opacity="0.6" d="M162.356 155.847C162.356 154.638 162.269 153.481 162.215 152.396C162.215 152.034 162.215 151.673 162.161 151.363C160.727 151.6 159.218 151.807 157.675 151.983C157.19 142.661 156.2 133.37 154.711 124.145L149.726 123.184C151.406 132.87 152.494 142.641 152.984 152.448C149.183 152.747 145.262 152.923 141.429 152.995C140.918 154.545 140.43 156.095 139.974 157.552C144.318 157.48 148.835 157.304 153.223 156.953C153.342 159.392 153.451 161.944 153.538 164.631C154.016 180.265 153.994 189.73 153.853 195.155C154.169 195.104 154.481 195.031 154.787 194.938L158.62 193.729C158.729 188.025 158.707 178.849 158.262 164.496C158.175 161.686 158.066 159.03 157.947 156.498C159.456 156.323 160.944 156.126 162.378 155.899L162.356 155.847Z" fill="white"/>
<path d="M130.7 173.538C128.734 172.205 121.567 173.476 118.45 174.117C118.45 176.959 118.515 179.511 118.515 181.35C118.515 182.652 118.515 183.83 118.406 184.905C121.458 185.494 128.539 186.693 130.7 185.515C133.958 183.737 133.675 175.564 130.7 173.538Z" fill="#407BFF"/>
<path opacity="0.2" d="M130.7 173.538C128.734 172.205 121.567 173.476 118.45 174.117C118.45 176.959 118.515 179.511 118.515 181.35C118.515 182.652 118.515 183.83 118.406 184.905C121.458 185.494 128.539 186.693 130.7 185.515C133.958 183.737 133.675 175.564 130.7 173.538Z" fill="black"/>
<path d="M144.113 182.177C139.655 182.227 135.201 181.916 130.799 181.247L131.483 177.702C140.176 178.899 149.006 178.899 157.699 177.702L158.209 181.267C153.538 181.877 148.828 182.181 144.113 182.177Z" fill="#407BFF"/>
<g opacity="0.2">
<path d="M144.112 182.176C139.654 182.226 135.2 181.915 130.798 181.246L131.482 177.702C140.175 178.899 149.005 178.899 157.698 177.702L158.208 181.267C153.537 181.877 148.827 182.18 144.112 182.176Z" fill="black"/>
</g>
<path d="M161.814 173.125C159.838 172.856 157.948 172.846 157.155 173.538C154.831 175.605 154.614 183.737 157.155 185.504C158.263 186.021 159.512 186.194 160.728 186C160.739 182.325 161.018 178.654 161.565 175.016L161.814 173.125Z" fill="#407BFF"/>
<path opacity="0.2" d="M161.814 173.125C159.838 172.856 157.948 172.846 157.155 173.538C154.831 175.605 154.614 183.737 157.155 185.504C158.263 186.021 159.512 186.194 160.728 186C160.739 182.325 161.018 178.654 161.565 175.016L161.814 173.125Z" fill="black"/>
<path d="M126.563 94.6635C126.563 94.6635 119.938 96.5648 122.458 99.1068C122.458 99.1068 120.025 101.018 122.382 102.847C122.382 102.847 121.046 106.133 124.912 105.947C124.912 105.947 124.727 109.833 127.681 108.489C127.681 108.489 128.463 109.936 130.07 108.768C131.678 107.601 129.701 103.602 129.701 103.602C129.701 103.602 132.525 102.434 131.591 99.9645C131.591 99.9645 134.067 98.9312 132.796 95.8312C132.796 95.8312 134.849 94.1262 134.143 92.9275L126.563 94.6635Z" fill="#263238"/>
<path d="M124.738 104.666C125.913 106.019 127.543 106.943 129.353 107.281C131.645 107.653 132.155 105.627 130.993 103.685C129.907 101.928 127.485 99.6238 125.444 100.13C123.402 100.637 123.261 102.972 124.738 104.666Z" fill="#CE7A63"/>
<path d="M146.784 89.1353L124.488 95.2009C124.488 95.2009 120.894 84.8056 131.602 82.3669C141.799 80.0419 146.784 89.1353 146.784 89.1353Z" fill="#407BFF"/>
<path d="M132.979 87.9366L124.074 90.3752C123.951 90.4065 123.821 90.4064 123.698 90.3749C123.575 90.3434 123.463 90.2816 123.372 90.1958C123.282 90.11 123.217 90.0031 123.184 89.8858C123.151 89.7686 123.151 89.6452 123.184 89.5279L123.77 87.4612C123.809 87.3261 123.89 87.2054 124.002 87.115C124.115 87.0246 124.254 86.9687 124.4 86.9549L132.751 86.1592C132.834 86.1505 132.917 86.1584 132.996 86.1825C133.075 86.2066 133.147 86.2463 133.209 86.299C133.27 86.3517 133.32 86.4162 133.353 86.4883C133.386 86.5604 133.404 86.6384 133.403 86.7172V87.3785C133.408 87.5032 133.369 87.6259 133.292 87.7271C133.216 87.8282 133.105 87.902 132.979 87.9366Z" fill="#407BFF"/>
<path opacity="0.2" d="M132.979 87.9366L124.074 90.3752C123.951 90.4065 123.821 90.4064 123.698 90.3749C123.575 90.3434 123.463 90.2816 123.372 90.1958C123.282 90.11 123.217 90.0031 123.184 89.8858C123.151 89.7686 123.151 89.6452 123.184 89.5279L123.77 87.4612C123.809 87.3261 123.89 87.2054 124.002 87.115C124.115 87.0246 124.254 86.9687 124.4 86.9549L132.751 86.1592C132.834 86.1505 132.917 86.1584 132.996 86.1825C133.075 86.2066 133.147 86.2463 133.209 86.299C133.27 86.3517 133.32 86.4162 133.353 86.4883C133.386 86.5604 133.404 86.6384 133.403 86.7172V87.3785C133.408 87.5032 133.369 87.6259 133.292 87.7271C133.216 87.8282 133.105 87.902 132.979 87.9366Z" fill="white"/>
<path d="M143.123 85.6943L140.778 86.0353C140.272 86.1174 139.753 86.0059 139.333 85.7254C137.62 84.5322 135.598 83.8055 133.484 83.6235C131.369 83.4414 129.243 83.8108 127.333 84.692C127.288 84.7181 127.234 84.7262 127.184 84.7145C127.133 84.7029 127.089 84.6725 127.061 84.63C127.034 84.5875 127.025 84.5365 127.038 84.488C127.05 84.4396 127.082 84.3977 127.126 84.3717C129.689 82.3774 135.967 78.864 143.416 84.6094C143.521 84.6795 143.6 84.7781 143.644 84.8922C143.688 85.0063 143.695 85.1304 143.663 85.248C143.631 85.3657 143.562 85.4714 143.466 85.5511C143.37 85.6308 143.25 85.6808 143.123 85.6943Z" fill="#407BFF"/>
<path opacity="0.2" d="M143.123 85.6943L140.778 86.0353C140.272 86.1174 139.753 86.0059 139.333 85.7254C137.62 84.5322 135.598 83.8055 133.484 83.6235C131.369 83.4414 129.243 83.8108 127.333 84.692C127.288 84.7181 127.234 84.7262 127.184 84.7145C127.133 84.7029 127.089 84.6725 127.061 84.63C127.034 84.5875 127.025 84.5365 127.038 84.488C127.05 84.4396 127.082 84.3977 127.126 84.3717C129.689 82.3774 135.967 78.864 143.416 84.6094C143.521 84.6795 143.6 84.7781 143.644 84.8922C143.688 85.0063 143.695 85.1304 143.663 85.248C143.631 85.3657 143.562 85.4714 143.466 85.5511C143.37 85.6308 143.25 85.6808 143.123 85.6943Z" fill="white"/>
<path opacity="0.6" d="M145.73 87.5954L140.3 88.8354C140.182 88.8643 140.058 88.8557 139.946 88.8109C139.834 88.7661 139.741 88.6876 139.681 88.5874L139.268 87.9054C139.225 87.831 139.202 87.7482 139.199 87.6635C139.195 87.5789 139.213 87.4947 139.25 87.4176C139.287 87.3405 139.342 87.2725 139.411 87.2191C139.48 87.1657 139.561 87.1283 139.648 87.1098L144.416 86.1694C144.882 86.62 145.321 87.0962 145.73 87.5954Z" fill="white"/>
<path d="M146.447 88.5876C146.447 88.5876 154.918 90.6543 146.784 92.3696C140.697 93.5455 134.526 94.2881 128.322 94.5913L124.641 95.6246C124.456 95.676 124.258 95.656 124.089 95.5689C123.92 95.4818 123.795 95.3347 123.739 95.1596V95.046C123.71 94.9551 123.7 94.8594 123.71 94.7648C123.72 94.6701 123.751 94.5784 123.8 94.4953C123.848 94.4122 123.914 94.3394 123.994 94.2813C124.073 94.2232 124.164 94.181 124.26 94.1573L146.447 88.5876Z" fill="#407BFF"/>
<path opacity="0.2" d="M146.447 88.5876C146.447 88.5876 154.918 90.6543 146.784 92.3696C140.697 93.5455 134.526 94.2881 128.322 94.5913L124.641 95.6246C124.456 95.676 124.258 95.656 124.089 95.5689C123.92 95.4818 123.795 95.3347 123.739 95.1596V95.046C123.71 94.9551 123.7 94.8594 123.71 94.7648C123.72 94.6701 123.751 94.5784 123.8 94.4953C123.848 94.4122 123.914 94.3394 123.994 94.2813C124.073 94.2232 124.164 94.181 124.26 94.1573L146.447 88.5876Z" fill="white"/>
<path d="M161.51 150.949H139.464L128.246 176.628L128.941 177.196H150.987L162.194 151.518L161.51 150.949Z" fill="#263238"/>
<path opacity="0.4" d="M161.51 150.949H139.464L128.246 176.628L128.941 177.196H150.987L162.194 151.518L161.51 150.949Z" fill="white"/>
<path d="M150.986 177.196H128.94L140.159 151.518H162.194L150.986 177.196Z" fill="#263238"/>
<path d="M155.797 150.577H147.403L146.121 153.522L146.403 153.76H154.798L156.091 150.815L155.797 150.577Z" fill="#407BFF"/>
<path opacity="0.5" d="M155.797 150.577H147.403L146.121 153.522L146.403 153.76H154.798L156.091 150.815L155.797 150.577Z" fill="white"/>
<path d="M154.799 153.76L156.091 150.815H147.697L146.404 153.76H154.799Z" fill="#407BFF"/>
<path opacity="0.2" d="M154.799 153.76L156.091 150.815H147.697L146.404 153.76H154.799Z" fill="white"/>
<path d="M126.596 164.393L133.72 161.5L131.928 170.5C131.928 170.5 125.14 171.978 124.619 168.588L126.596 164.393Z" fill="#CE7A63"/>
<path d="M140.279 164.372L136.174 171.771L131.928 170.541L133.72 161.5L140.279 164.372Z" fill="#CE7A63"/>
<path d="M109.686 159.247H99.0977C99.0139 160.695 99.1753 162.146 99.5755 163.546C99.6624 163.825 99.7601 164.104 99.8796 164.403C100.022 164.76 100.193 165.105 100.39 165.437C100.74 166.041 101.171 166.6 101.671 167.1C102.482 167.914 103.433 168.589 104.484 169.095C106.038 169.84 107.7 170.362 109.415 170.645C110.849 170.895 112.301 171.047 113.759 171.099C119.223 171.24 124.682 170.691 129.994 169.467L129.408 164.166C124.521 163.971 119.653 163.473 114.834 162.678C113.755 162.472 112.689 162.21 111.641 161.892C110.891 161.644 110.165 161.337 109.469 160.973C109.464 160.394 109.518 159.816 109.632 159.247H109.686Z" fill="#CE7A63"/>
</svg>
